<?xml version="1.0" encoding="utf-8"?>
<!-- Generator: Adobe Illustrator 19.2.1, SVG Export Plug-In . SVG Version: 6.00 Build 0)  -->
<svg version="1.1" id="Layer_1" xmlns="http://www.w3.org/2000/svg" xmlns:xlink="http://www.w3.org/1999/xlink" x="0px" y="0px"
	 viewBox="0 0 24 24" style="enable-background:new 0 0 24 24;" xml:space="preserve">
<style type="text/css">
	.st0{stroke:#FFFFFF;stroke-width:0.25;stroke-miterlimit:10;}
</style>
<title>Adobe XD</title>
<path class="st0" d="M4.3,0.3C1.9,0.3,0,2.2,0,4.5v14.9c0,2.4,1.9,4.3,4.3,4.3h15.5c2.4,0,4.3-1.9,4.3-4.3V4.5
	c0-2.3-1.9-4.3-4.3-4.3H4.3z M18.3,5.4h2c0,0,0.1,0,0.1,0.1V15c0,0.2,0,0.4,0,0.6c0,0.2,0,0.4,0,0.6c0,0.1,0,0.1-0.1,0.2
	c-0.5,0.2-1.1,0.4-1.6,0.5c-0.5,0.1-1,0.1-1.5,0.1c-0.7,0-1.5-0.1-2.1-0.5c-0.6-0.3-1.1-0.8-1.5-1.4c-0.4-0.6-0.6-1.4-0.6-2.3
	c0-1.5,0.8-2.9,2.1-3.7c0.7-0.4,1.5-0.6,2.5-0.6c0,0,0.1,0,0.2,0s0.2,0,0.3,0V5.5C18.2,5.5,18.3,5.4,18.3,5.4z M3.7,6.3h2.3
	c0.1,0,0.1,0,0.1,0c0,0,0.1,0.1,0.1,0.1c0.2,0.4,0.4,0.9,0.6,1.3C7.1,8.1,7.3,8.5,7.5,9C7.8,9.4,8,9.8,8.2,10.2h0
	c0.2-0.4,0.4-0.9,0.6-1.3c0.2-0.4,0.4-0.8,0.7-1.3c0.2-0.4,0.4-0.8,0.7-1.3c0,0,0-0.1,0.1-0.1c0,0,0.1,0,0.1,0h2.1
	c0.1,0,0.1,0,0.1,0.1c0,0,0,0.1,0,0.1l-3,5l3.2,5.2c0,0,0,0.1,0,0.1c0,0-0.1,0-0.1,0h-2.3c-0.2,0-0.3,0-0.3-0.1
	c-0.2-0.4-0.4-0.8-0.6-1.2C9.3,15,9,14.6,8.8,14.2c-0.2-0.4-0.5-0.9-0.7-1.3h0c-0.2,0.4-0.4,0.9-0.7,1.3S6.9,15,6.7,15.4
	c-0.2,0.4-0.5,0.8-0.7,1.3c0,0.1-0.1,0.1-0.2,0.1H3.6c0,0-0.1,0-0.1,0c0,0,0-0.1,0-0.1l3.1-5.1l-3-5.1c0,0,0-0.1,0-0.1
	C3.6,6.3,3.6,6.3,3.7,6.3z M17.6,10.5c-0.4,0-0.8,0.1-1.1,0.3c-0.3,0.2-0.6,0.4-0.9,0.7s-0.3,0.8-0.3,1.3c0,0.4,0.1,0.7,0.2,1
	c0.1,0.3,0.3,0.5,0.4,0.7c0.2,0.2,0.4,0.3,0.7,0.4c0.3,0.1,0.5,0.1,0.8,0.1c0.1,0,0.3,0,0.4,0c0.1,0,0.2,0,0.4-0.1v-4.4
	c-0.1,0-0.2,0-0.3-0.1C17.8,10.5,17.7,10.5,17.6,10.5z"/>
</svg>
