<?xml version="1.0" encoding="utf-8"?>
<!-- Generator: Adobe Illustrator 19.2.1, SVG Export Plug-In . SVG Version: 6.00 Build 0)  -->
<svg version="1.1" id="Layer_1" xmlns="http://www.w3.org/2000/svg" xmlns:xlink="http://www.w3.org/1999/xlink" x="0px" y="0px"
	 viewBox="0 0 24 24" style="enable-background:new 0 0 24 24;" xml:space="preserve">
<style type="text/css">
	.st0{stroke:#FFFFFF;stroke-width:0.25;stroke-miterlimit:10;}
</style>
<title>Visual Studio Code</title>
<path class="st0" d="M23.1,2.6l-4.9-2.4c-0.6-0.3-1.3-0.2-1.7,0.3L7,9.1L2.9,6C2.5,5.7,2,5.7,1.6,6.1L0.3,7.3
	c-0.4,0.4-0.4,1-0.1,1.4c0,0,0,0,0.1,0.1L3.9,12l-3.6,3.3c-0.4,0.4-0.4,1-0.1,1.4c0,0,0,0,0.1,0.1l1.3,1.2C2,18.3,2.5,18.3,2.9,18
	L7,14.9l9.5,8.6c0.4,0.4,1.1,0.6,1.7,0.3l4.9-2.4c0.5-0.3,0.8-0.8,0.8-1.4V3.9C24,3.4,23.7,2.8,23.1,2.6z M18,17.4L10.8,12L18,6.6
	V17.4z"/>
</svg>
